<svg xmlns="http://www.w3.org/2000/svg" xmlns:xlink="http://www.w3.org/1999/xlink" version="1.1" baseProfile="full" style="user-select: none; position: absolute; left: 0px; top: 0px;" width="890" height="361">
<g>
<rect width="890" height="361" x="0" y="0" id="0" style="fill: transparent;">
</rect>
</g>
<g>
<defs>
<clipPath id="zr2457-clip-0">
<path d="M 88 59 L 802 59 L 802 292 L 88 292 L 88 59" fill="#000" fill-opacity="1" stroke="none">
</path>
</clipPath>
<clipPath id="zr2457-clip-1">
<path d="M 88 59 L 802 59 L 802 292 L 88 292 L 88 59" fill="#000" fill-opacity="1" stroke="none">
</path>
</clipPath>
<clipPath id="zr2457-clip-2">
<path d="M 88 59 L 802 59 L 802 292 L 88 292 L 88 59" fill="#000" fill-opacity="1" stroke="none">
</path>
</clipPath>
<clipPath id="zr2457-clip-3">
<path d="M 88 59 L 802 59 L 802 292 L 88 292 L 88 59" fill="#000" fill-opacity="1" stroke="none">
</path>
</clipPath>
</defs>
<path d="M 89 291.5 L 801 291.5" fill="none" stroke="#E0E6F1" stroke-width="1" paint-order="fill" stroke-opacity="1" stroke-dasharray="" stroke-linecap="butt" stroke-miterlimit="10">
</path>
<path d="M 89 245.5 L 801 245.5" fill="none" stroke="#E0E6F1" stroke-width="1" paint-order="fill" stroke-opacity="1" stroke-dasharray="" stroke-linecap="butt" stroke-miterlimit="10">
</path>
<path d="M 89 198.5 L 801 198.5" fill="none" stroke="#E0E6F1" stroke-width="1" paint-order="fill" stroke-opacity="1" stroke-dasharray="" stroke-linecap="butt" stroke-miterlimit="10">
</path>
<path d="M 89 152.5 L 801 152.5" fill="none" stroke="#E0E6F1" stroke-width="1" paint-order="fill" stroke-opacity="1" stroke-dasharray="" stroke-linecap="butt" stroke-miterlimit="10">
</path>
<path d="M 89 106.5 L 801 106.5" fill="none" stroke="#E0E6F1" stroke-width="1" paint-order="fill" stroke-opacity="1" stroke-dasharray="" stroke-linecap="butt" stroke-miterlimit="10">
</path>
<path d="M 89 60.5 L 801 60.5" fill="none" stroke="#E0E6F1" stroke-width="1" paint-order="fill" stroke-opacity="1" stroke-dasharray="" stroke-linecap="butt" stroke-miterlimit="10">
</path>
<path d="M 89.5 60 L 89.5 291" fill="none" stroke="#E0E6F1" stroke-width="1" paint-order="fill" stroke-opacity="1" stroke-dasharray="" stroke-linecap="butt" stroke-miterlimit="10">
</path>
<path d="M 207.5 60 L 207.5 291" fill="none" stroke="#E0E6F1" stroke-width="1" paint-order="fill" stroke-opacity="1" stroke-dasharray="" stroke-linecap="butt" stroke-miterlimit="10">
</path>
<path d="M 326.5 60 L 326.5 291" fill="none" stroke="#E0E6F1" stroke-width="1" paint-order="fill" stroke-opacity="1" stroke-dasharray="" stroke-linecap="butt" stroke-miterlimit="10">
</path>
<path d="M 445.5 60 L 445.5 291" fill="none" stroke="#E0E6F1" stroke-width="1" paint-order="fill" stroke-opacity="1" stroke-dasharray="" stroke-linecap="butt" stroke-miterlimit="10">
</path>
<path d="M 563.5 60 L 563.5 291" fill="none" stroke="#E0E6F1" stroke-width="1" paint-order="fill" stroke-opacity="1" stroke-dasharray="" stroke-linecap="butt" stroke-miterlimit="10">
</path>
<path d="M 682.5 60 L 682.5 291" fill="none" stroke="#E0E6F1" stroke-width="1" paint-order="fill" stroke-opacity="1" stroke-dasharray="" stroke-linecap="butt" stroke-miterlimit="10">
</path>
<path d="M 801.5 60 L 801.5 291" fill="none" stroke="#E0E6F1" stroke-width="1" paint-order="fill" stroke-opacity="1" stroke-dasharray="" stroke-linecap="butt" stroke-miterlimit="10">
</path>
<path d="M 89.5 291 L 89.5 60" fill="none" stroke="#6E7079" stroke-width="1" paint-order="fill" stroke-opacity="1" stroke-dasharray="" stroke-linecap="round" stroke-miterlimit="10">
</path>
<text xml:space="preserve" style="font: 12px sans-serif;" fill="#6E7079" fill-opacity="1" stroke="none" transform="matrix(1,0,0,1,89,45)" dominant-baseline="central" text-anchor="middle" x="0" y="-6">耗时</text>
<path d="M 89 291.5 L 801 291.5" fill="none" stroke="#6E7079" stroke-width="1" paint-order="fill" stroke-opacity="1" stroke-dasharray="" stroke-linecap="round" stroke-miterlimit="10">
</path>
<text xml:space="preserve" style="font: 12px sans-serif;" fill="#6E7079" fill-opacity="1" stroke="none" transform="matrix(1,0,0,1,816,291)" dominant-baseline="central" text-anchor="start" x="0" y="0">第 n 轮</text>
<path d="M 89 291.5 L 84 291.5" fill="none" stroke="#6E7079" stroke-width="1" paint-order="fill" stroke-opacity="1" stroke-dasharray="" stroke-linecap="butt" stroke-miterlimit="10">
</path>
<path d="M 89 245.5 L 84 245.5" fill="none" stroke="#6E7079" stroke-width="1" paint-order="fill" stroke-opacity="1" stroke-dasharray="" stroke-linecap="butt" stroke-miterlimit="10">
</path>
<path d="M 89 198.5 L 84 198.5" fill="none" stroke="#6E7079" stroke-width="1" paint-order="fill" stroke-opacity="1" stroke-dasharray="" stroke-linecap="butt" stroke-miterlimit="10">
</path>
<path d="M 89 152.5 L 84 152.5" fill="none" stroke="#6E7079" stroke-width="1" paint-order="fill" stroke-opacity="1" stroke-dasharray="" stroke-linecap="butt" stroke-miterlimit="10">
</path>
<path d="M 89 106.5 L 84 106.5" fill="none" stroke="#6E7079" stroke-width="1" paint-order="fill" stroke-opacity="1" stroke-dasharray="" stroke-linecap="butt" stroke-miterlimit="10">
</path>
<path d="M 89 60.5 L 84 60.5" fill="none" stroke="#6E7079" stroke-width="1" paint-order="fill" stroke-opacity="1" stroke-dasharray="" stroke-linecap="butt" stroke-miterlimit="10">
</path>
<path d="M 89.5 291 L 89.5 296" fill="none" stroke="#6E7079" stroke-width="1" paint-order="fill" stroke-opacity="1" stroke-dasharray="" stroke-linecap="butt" stroke-miterlimit="10">
</path>
<path d="M 207.5 291 L 207.5 296" fill="none" stroke="#6E7079" stroke-width="1" paint-order="fill" stroke-opacity="1" stroke-dasharray="" stroke-linecap="butt" stroke-miterlimit="10">
</path>
<path d="M 326.5 291 L 326.5 296" fill="none" stroke="#6E7079" stroke-width="1" paint-order="fill" stroke-opacity="1" stroke-dasharray="" stroke-linecap="butt" stroke-miterlimit="10">
</path>
<path d="M 445.5 291 L 445.5 296" fill="none" stroke="#6E7079" stroke-width="1" paint-order="fill" stroke-opacity="1" stroke-dasharray="" stroke-linecap="butt" stroke-miterlimit="10">
</path>
<path d="M 563.5 291 L 563.5 296" fill="none" stroke="#6E7079" stroke-width="1" paint-order="fill" stroke-opacity="1" stroke-dasharray="" stroke-linecap="butt" stroke-miterlimit="10">
</path>
<path d="M 682.5 291 L 682.5 296" fill="none" stroke="#6E7079" stroke-width="1" paint-order="fill" stroke-opacity="1" stroke-dasharray="" stroke-linecap="butt" stroke-miterlimit="10">
</path>
<path d="M 801.5 291 L 801.5 296" fill="none" stroke="#6E7079" stroke-width="1" paint-order="fill" stroke-opacity="1" stroke-dasharray="" stroke-linecap="butt" stroke-miterlimit="10">
</path>
<text xml:space="preserve" style="font: 12px sans-serif;" fill="#6E7079" fill-opacity="1" stroke="none" transform="matrix(1,0,0,1,81,291)" dominant-baseline="central" text-anchor="end" x="0" y="0">0s</text>
<text xml:space="preserve" style="font: 12px sans-serif;" fill="#6E7079" fill-opacity="1" stroke="none" transform="matrix(1,0,0,1,81,244.8)" dominant-baseline="central" text-anchor="end" x="0" y="0">10s</text>
<text xml:space="preserve" style="font: 12px sans-serif;" fill="#6E7079" fill-opacity="1" stroke="none" transform="matrix(1,0,0,1,81,198.6)" dominant-baseline="central" text-anchor="end" x="0" y="0">20s</text>
<text xml:space="preserve" style="font: 12px sans-serif;" fill="#6E7079" fill-opacity="1" stroke="none" transform="matrix(1,0,0,1,81,152.4)" dominant-baseline="central" text-anchor="end" x="0" y="0">30s</text>
<text xml:space="preserve" style="font: 12px sans-serif;" fill="#6E7079" fill-opacity="1" stroke="none" transform="matrix(1,0,0,1,81,106.2)" dominant-baseline="central" text-anchor="end" x="0" y="0">40s</text>
<text xml:space="preserve" style="font: 12px sans-serif;" fill="#6E7079" fill-opacity="1" stroke="none" transform="matrix(1,0,0,1,81,60)" dominant-baseline="central" text-anchor="end" x="0" y="0">50s</text>
<text xml:space="preserve" style="font: 12px sans-serif;" fill="#6E7079" fill-opacity="1" stroke="none" transform="matrix(1,0,0,1,89,299)" dominant-baseline="central" text-anchor="middle" x="0" y="6">0</text>
<text xml:space="preserve" style="font: 12px sans-serif;" fill="#6E7079" fill-opacity="1" stroke="none" transform="matrix(1,0,0,1,207.6667,299)" dominant-baseline="central" text-anchor="middle" x="0" y="6">3</text>
<text xml:space="preserve" style="font: 12px sans-serif;" fill="#6E7079" fill-opacity="1" stroke="none" transform="matrix(1,0,0,1,326.3333,299)" dominant-baseline="central" text-anchor="middle" x="0" y="6">6</text>
<text xml:space="preserve" style="font: 12px sans-serif;" fill="#6E7079" fill-opacity="1" stroke="none" transform="matrix(1,0,0,1,445,299)" dominant-baseline="central" text-anchor="middle" x="0" y="6">9</text>
<text xml:space="preserve" style="font: 12px sans-serif;" fill="#6E7079" fill-opacity="1" stroke="none" transform="matrix(1,0,0,1,563.6667,299)" dominant-baseline="central" text-anchor="middle" x="0" y="6">12</text>
<text xml:space="preserve" style="font: 12px sans-serif;" fill="#6E7079" fill-opacity="1" stroke="none" transform="matrix(1,0,0,1,682.3333,299)" dominant-baseline="central" text-anchor="middle" x="0" y="6">15</text>
<text xml:space="preserve" style="font: 12px sans-serif;" fill="#6E7079" fill-opacity="1" stroke="none" transform="matrix(1,0,0,1,801,299)" dominant-baseline="central" text-anchor="middle" x="0" y="6">18</text>
<g clip-path="url(#zr2457-clip-0)">
<path d="M 128.5556 290.769 L 168.1111 290.3994 L 207.6667 290.4456 L 247.2222 290.4456 L 286.7778 290.4456 L 326.3333 290.4456 L 365.8889 290.4456 L 405.4445 290.4456 L 445 290.4456 L 484.5555 290.4456 L 524.1111 290.4456 L 563.6667 290.4456 L 603.2222 290.4456 L 642.7778 290.4456 L 682.3333 290.4456 L 721.8889 290.3994" fill="none" stroke="rgba(84,112,198,1)" stroke-width="2" paint-order="fill" stroke-opacity="1" stroke-dasharray="" stroke-linecap="butt" stroke-linejoin="bevel" stroke-miterlimit="10">
</path>
</g>
<g clip-path="url(#zr2457-clip-1)">
<path d="M 128.5556 287.3964 L 168.1111 290.307 L 207.6667 290.307 L 247.2222 290.307 L 286.7778 290.307 L 326.3333 290.307 L 365.8889 290.307 L 405.4445 290.307 L 445 290.307 L 484.5555 290.307 L 524.1111 290.307 L 563.6667 290.307 L 603.2222 290.307 L 642.7778 290.307 L 682.3333 290.2608 L 721.8889 290.307" fill="none" stroke="rgba(145,204,117,1)" stroke-width="2" paint-order="fill" stroke-opacity="1" stroke-dasharray="" stroke-linecap="butt" stroke-linejoin="bevel" stroke-miterlimit="10">
</path>
</g>
<g clip-path="url(#zr2457-clip-2)">
<path d="M 128.5556 88.6902 L 168.1111 88.8288 L 207.6667 94.7886 L 247.2222 96.267 L 286.7778 87.3042 L 326.3333 92.0166 L 365.8889 93.8184 L 405.4445 89.2908 L 445 90.8154 L 484.5555 88.182 L 524.1111 89.6604 L 563.6667 88.5054 L 603.2222 87.4428 L 642.7778 86.6112 L 682.3333 88.6902 L 721.8889 88.644" fill="none" stroke="rgba(250,200,88,1)" stroke-width="2" paint-order="fill" stroke-opacity="1" stroke-dasharray="" stroke-linecap="butt" stroke-linejoin="bevel" stroke-miterlimit="10">
</path>
</g>
<g clip-path="url(#zr2457-clip-3)">
<path d="M 128.5556 176.7936 L 168.1111 179.2884 L 207.6667 180.8592 L 247.2222 176.7936 L 286.7778 177.5328 L 326.3333 179.1498 L 365.8889 178.041 L 405.4445 177.4404 L 445 176.2392 L 484.5555 175.5924 L 524.1111 175.8234 L 563.6667 178.0872 L 603.2222 175.0842 L 642.7778 175.2228 L 682.3333 177.5328 L 721.8889 175.2228" fill="none" stroke="rgba(238,102,102,1)" stroke-width="2" paint-order="fill" stroke-opacity="1" stroke-dasharray="" stroke-linecap="butt" stroke-linejoin="bevel" stroke-miterlimit="10">
</path>
</g>
<path d="M 1 0 A 1 1 0 1 1 1 -0.0001" fill="rgba(255,255,255,1)" fill-opacity="1" stroke="rgba(84,112,198,1)" stroke-width="1" paint-order="fill" stroke-opacity="1" stroke-dasharray="" stroke-linecap="butt" stroke-miterlimit="10" transform="matrix(2,0,0,2,128.5556,290.769)">
</path>
<path d="M 1 0 A 1 1 0 1 1 1 -0.0001" fill="#fff" fill-opacity="1" stroke="#5470c6" stroke-width="1" paint-order="fill" stroke-opacity="1" stroke-dasharray="" stroke-linecap="butt" stroke-miterlimit="10" transform="matrix(2,0,0,2,168.1111,290.3994)">
</path>
<path d="M 1 0 A 1 1 0 1 1 1 -0.0001" fill="#fff" fill-opacity="1" stroke="#5470c6" stroke-width="1" paint-order="fill" stroke-opacity="1" stroke-dasharray="" stroke-linecap="butt" stroke-miterlimit="10" transform="matrix(2,0,0,2,207.6667,290.4456)">
</path>
<path d="M 1 0 A 1 1 0 1 1 1 -0.0001" fill="rgba(255,255,255,1)" fill-opacity="1" stroke="rgba(84,112,198,1)" stroke-width="1" paint-order="fill" stroke-opacity="1" stroke-dasharray="" stroke-linecap="butt" stroke-miterlimit="10" transform="matrix(2,0,0,2,247.2222,290.4456)">
</path>
<path d="M 1 0 A 1 1 0 1 1 1 -0.0001" fill="rgba(255,255,255,1)" fill-opacity="1" stroke="rgba(84,112,198,1)" stroke-width="1" paint-order="fill" stroke-opacity="1" stroke-dasharray="" stroke-linecap="butt" stroke-miterlimit="10" transform="matrix(2,0,0,2,286.7778,290.4456)">
</path>
<path d="M 1 0 A 1 1 0 1 1 1 -0.0001" fill="rgba(255,255,255,1)" fill-opacity="1" stroke="rgba(84,112,198,1)" stroke-width="1" paint-order="fill" stroke-opacity="1" stroke-dasharray="" stroke-linecap="butt" stroke-miterlimit="10" transform="matrix(2,0,0,2,326.3333,290.4456)">
</path>
<path d="M 1 0 A 1 1 0 1 1 1 -0.0001" fill="rgba(255,255,255,1)" fill-opacity="1" stroke="rgba(84,112,198,1)" stroke-width="1" paint-order="fill" stroke-opacity="1" stroke-dasharray="" stroke-linecap="butt" stroke-miterlimit="10" transform="matrix(2,0,0,2,365.8889,290.4456)">
</path>
<path d="M 1 0 A 1 1 0 1 1 1 -0.0001" fill="rgba(255,255,255,1)" fill-opacity="1" stroke="rgba(84,112,198,1)" stroke-width="1" paint-order="fill" stroke-opacity="1" stroke-dasharray="" stroke-linecap="butt" stroke-miterlimit="10" transform="matrix(2,0,0,2,405.4445,290.4456)">
</path>
<path d="M 1 0 A 1 1 0 1 1 1 -0.0001" fill="rgba(255,255,255,1)" fill-opacity="1" stroke="rgba(84,112,198,1)" stroke-width="1" paint-order="fill" stroke-opacity="1" stroke-dasharray="" stroke-linecap="butt" stroke-miterlimit="10" transform="matrix(2,0,0,2,445,290.4456)">
</path>
<path d="M 1 0 A 1 1 0 1 1 1 -0.0001" fill="rgba(255,255,255,1)" fill-opacity="1" stroke="rgba(84,112,198,1)" stroke-width="1" paint-order="fill" stroke-opacity="1" stroke-dasharray="" stroke-linecap="butt" stroke-miterlimit="10" transform="matrix(2,0,0,2,484.5555,290.4456)">
</path>
<path d="M 1 0 A 1 1 0 1 1 1 -0.0001" fill="rgba(255,255,255,1)" fill-opacity="1" stroke="rgba(84,112,198,1)" stroke-width="1" paint-order="fill" stroke-opacity="1" stroke-dasharray="" stroke-linecap="butt" stroke-miterlimit="10" transform="matrix(2,0,0,2,524.1111,290.4456)">
</path>
<path d="M 1 0 A 1 1 0 1 1 1 -0.0001" fill="rgba(255,255,255,1)" fill-opacity="1" stroke="rgba(84,112,198,1)" stroke-width="1" paint-order="fill" stroke-opacity="1" stroke-dasharray="" stroke-linecap="butt" stroke-miterlimit="10" transform="matrix(2,0,0,2,563.6667,290.4456)">
</path>
<path d="M 1 0 A 1 1 0 1 1 1 -0.0001" fill="rgba(255,255,255,1)" fill-opacity="1" stroke="rgba(84,112,198,1)" stroke-width="1" paint-order="fill" stroke-opacity="1" stroke-dasharray="" stroke-linecap="butt" stroke-miterlimit="10" transform="matrix(2,0,0,2,603.2222,290.4456)">
</path>
<path d="M 1 0 A 1 1 0 1 1 1 -0.0001" fill="rgba(255,255,255,1)" fill-opacity="1" stroke="rgba(84,112,198,1)" stroke-width="1" paint-order="fill" stroke-opacity="1" stroke-dasharray="" stroke-linecap="butt" stroke-miterlimit="10" transform="matrix(2,0,0,2,642.7778,290.4456)">
</path>
<path d="M 1 0 A 1 1 0 1 1 1 -0.0001" fill="rgba(255,255,255,1)" fill-opacity="1" stroke="rgba(84,112,198,1)" stroke-width="1" paint-order="fill" stroke-opacity="1" stroke-dasharray="" stroke-linecap="butt" stroke-miterlimit="10" transform="matrix(2,0,0,2,682.3333,290.4456)">
</path>
<path d="M 1 0 A 1 1 0 1 1 1 -0.0001" fill="rgba(255,255,255,1)" fill-opacity="1" stroke="rgba(84,112,198,1)" stroke-width="1" paint-order="fill" stroke-opacity="1" stroke-dasharray="" stroke-linecap="butt" stroke-miterlimit="10" transform="matrix(2,0,0,2,721.8889,290.3994)">
</path>
<path d="M 1 0 A 1 1 0 1 1 1 -0.0001" fill="rgba(255,255,255,1)" fill-opacity="1" stroke="rgba(145,204,117,1)" stroke-width="1" paint-order="fill" stroke-opacity="1" stroke-dasharray="" stroke-linecap="butt" stroke-miterlimit="10" transform="matrix(2,0,0,2,128.5556,287.3964)">
</path>
<path d="M 1 0 A 1 1 0 1 1 1 -0.0001" fill="#fff" fill-opacity="1" stroke="#91cc75" stroke-width="1" paint-order="fill" stroke-opacity="1" stroke-dasharray="" stroke-linecap="butt" stroke-miterlimit="10" transform="matrix(2,0,0,2,168.1111,290.307)">
</path>
<path d="M 1 0 A 1 1 0 1 1 1 -0.0001" fill="#fff" fill-opacity="1" stroke="#91cc75" stroke-width="1" paint-order="fill" stroke-opacity="1" stroke-dasharray="" stroke-linecap="butt" stroke-miterlimit="10" transform="matrix(2,0,0,2,207.6667,290.307)">
</path>
<path d="M 1 0 A 1 1 0 1 1 1 -0.0001" fill="rgba(255,255,255,1)" fill-opacity="1" stroke="rgba(145,204,117,1)" stroke-width="1" paint-order="fill" stroke-opacity="1" stroke-dasharray="" stroke-linecap="butt" stroke-miterlimit="10" transform="matrix(2,0,0,2,247.2222,290.307)">
</path>
<path d="M 1 0 A 1 1 0 1 1 1 -0.0001" fill="rgba(255,255,255,1)" fill-opacity="1" stroke="rgba(145,204,117,1)" stroke-width="1" paint-order="fill" stroke-opacity="1" stroke-dasharray="" stroke-linecap="butt" stroke-miterlimit="10" transform="matrix(2,0,0,2,286.7778,290.307)">
</path>
<path d="M 1 0 A 1 1 0 1 1 1 -0.0001" fill="rgba(255,255,255,1)" fill-opacity="1" stroke="rgba(145,204,117,1)" stroke-width="1" paint-order="fill" stroke-opacity="1" stroke-dasharray="" stroke-linecap="butt" stroke-miterlimit="10" transform="matrix(2,0,0,2,326.3333,290.307)">
</path>
<path d="M 1 0 A 1 1 0 1 1 1 -0.0001" fill="rgba(255,255,255,1)" fill-opacity="1" stroke="rgba(145,204,117,1)" stroke-width="1" paint-order="fill" stroke-opacity="1" stroke-dasharray="" stroke-linecap="butt" stroke-miterlimit="10" transform="matrix(2,0,0,2,365.8889,290.307)">
</path>
<path d="M 1 0 A 1 1 0 1 1 1 -0.0001" fill="rgba(255,255,255,1)" fill-opacity="1" stroke="rgba(145,204,117,1)" stroke-width="1" paint-order="fill" stroke-opacity="1" stroke-dasharray="" stroke-linecap="butt" stroke-miterlimit="10" transform="matrix(2,0,0,2,405.4445,290.307)">
</path>
<path d="M 1 0 A 1 1 0 1 1 1 -0.0001" fill="rgba(255,255,255,1)" fill-opacity="1" stroke="rgba(145,204,117,1)" stroke-width="1" paint-order="fill" stroke-opacity="1" stroke-dasharray="" stroke-linecap="butt" stroke-miterlimit="10" transform="matrix(2,0,0,2,445,290.307)">
</path>
<path d="M 1 0 A 1 1 0 1 1 1 -0.0001" fill="rgba(255,255,255,1)" fill-opacity="1" stroke="rgba(145,204,117,1)" stroke-width="1" paint-order="fill" stroke-opacity="1" stroke-dasharray="" stroke-linecap="butt" stroke-miterlimit="10" transform="matrix(2,0,0,2,484.5555,290.307)">
</path>
<path d="M 1 0 A 1 1 0 1 1 1 -0.0001" fill="rgba(255,255,255,1)" fill-opacity="1" stroke="rgba(145,204,117,1)" stroke-width="1" paint-order="fill" stroke-opacity="1" stroke-dasharray="" stroke-linecap="butt" stroke-miterlimit="10" transform="matrix(2,0,0,2,524.1111,290.307)">
</path>
<path d="M 1 0 A 1 1 0 1 1 1 -0.0001" fill="rgba(255,255,255,1)" fill-opacity="1" stroke="rgba(145,204,117,1)" stroke-width="1" paint-order="fill" stroke-opacity="1" stroke-dasharray="" stroke-linecap="butt" stroke-miterlimit="10" transform="matrix(2,0,0,2,563.6667,290.307)">
</path>
<path d="M 1 0 A 1 1 0 1 1 1 -0.0001" fill="rgba(255,255,255,1)" fill-opacity="1" stroke="rgba(145,204,117,1)" stroke-width="1" paint-order="fill" stroke-opacity="1" stroke-dasharray="" stroke-linecap="butt" stroke-miterlimit="10" transform="matrix(2,0,0,2,603.2222,290.307)">
</path>
<path d="M 1 0 A 1 1 0 1 1 1 -0.0001" fill="rgba(255,255,255,1)" fill-opacity="1" stroke="rgba(145,204,117,1)" stroke-width="1" paint-order="fill" stroke-opacity="1" stroke-dasharray="" stroke-linecap="butt" stroke-miterlimit="10" transform="matrix(2,0,0,2,642.7778,290.307)">
</path>
<path d="M 1 0 A 1 1 0 1 1 1 -0.0001" fill="rgba(255,255,255,1)" fill-opacity="1" stroke="rgba(145,204,117,1)" stroke-width="1" paint-order="fill" stroke-opacity="1" stroke-dasharray="" stroke-linecap="butt" stroke-miterlimit="10" transform="matrix(2,0,0,2,682.3333,290.2608)">
</path>
<path d="M 1 0 A 1 1 0 1 1 1 -0.0001" fill="rgba(255,255,255,1)" fill-opacity="1" stroke="rgba(145,204,117,1)" stroke-width="1" paint-order="fill" stroke-opacity="1" stroke-dasharray="" stroke-linecap="butt" stroke-miterlimit="10" transform="matrix(2,0,0,2,721.8889,290.307)">
</path>
<path d="M 1 0 A 1 1 0 1 1 1 -0.0001" fill="rgba(255,255,255,1)" fill-opacity="1" stroke="rgba(250,200,88,1)" stroke-width="1" paint-order="fill" stroke-opacity="1" stroke-dasharray="" stroke-linecap="butt" stroke-miterlimit="10" transform="matrix(2,0,0,2,128.5556,88.6902)">
</path>
<path d="M 1 0 A 1 1 0 1 1 1 -0.0001" fill="rgba(255,255,255,1)" fill-opacity="1" stroke="rgba(250,200,88,1)" stroke-width="1" paint-order="fill" stroke-opacity="1" stroke-dasharray="" stroke-linecap="butt" stroke-miterlimit="10" transform="matrix(2,0,0,2,168.1111,88.8288)">
</path>
<path d="M 1 0 A 1 1 0 1 1 1 -0.0001" fill="#fff" fill-opacity="1" stroke="#fac858" stroke-width="1" paint-order="fill" stroke-opacity="1" stroke-dasharray="" stroke-linecap="butt" stroke-miterlimit="10" transform="matrix(2,0,0,2,207.6667,94.7886)">
</path>
<path d="M 1 0 A 1 1 0 1 1 1 -0.0001" fill="rgba(255,255,255,1)" fill-opacity="1" stroke="rgba(250,200,88,1)" stroke-width="1" paint-order="fill" stroke-opacity="1" stroke-dasharray="" stroke-linecap="butt" stroke-miterlimit="10" transform="matrix(2,0,0,2,247.2222,96.267)">
</path>
<path d="M 1 0 A 1 1 0 1 1 1 -0.0001" fill="rgba(255,255,255,1)" fill-opacity="1" stroke="rgba(250,200,88,1)" stroke-width="1" paint-order="fill" stroke-opacity="1" stroke-dasharray="" stroke-linecap="butt" stroke-miterlimit="10" transform="matrix(2,0,0,2,286.7778,87.3042)">
</path>
<path d="M 1 0 A 1 1 0 1 1 1 -0.0001" fill="rgba(255,255,255,1)" fill-opacity="1" stroke="rgba(250,200,88,1)" stroke-width="1" paint-order="fill" stroke-opacity="1" stroke-dasharray="" stroke-linecap="butt" stroke-miterlimit="10" transform="matrix(2,0,0,2,326.3333,92.0166)">
</path>
<path d="M 1 0 A 1 1 0 1 1 1 -0.0001" fill="rgba(255,255,255,1)" fill-opacity="1" stroke="rgba(250,200,88,1)" stroke-width="1" paint-order="fill" stroke-opacity="1" stroke-dasharray="" stroke-linecap="butt" stroke-miterlimit="10" transform="matrix(2,0,0,2,365.8889,93.8184)">
</path>
<path d="M 1 0 A 1 1 0 1 1 1 -0.0001" fill="rgba(255,255,255,1)" fill-opacity="1" stroke="rgba(250,200,88,1)" stroke-width="1" paint-order="fill" stroke-opacity="1" stroke-dasharray="" stroke-linecap="butt" stroke-miterlimit="10" transform="matrix(2,0,0,2,405.4445,89.2908)">
</path>
<path d="M 1 0 A 1 1 0 1 1 1 -0.0001" fill="rgba(255,255,255,1)" fill-opacity="1" stroke="rgba(250,200,88,1)" stroke-width="1" paint-order="fill" stroke-opacity="1" stroke-dasharray="" stroke-linecap="butt" stroke-miterlimit="10" transform="matrix(2,0,0,2,445,90.8154)">
</path>
<path d="M 1 0 A 1 1 0 1 1 1 -0.0001" fill="rgba(255,255,255,1)" fill-opacity="1" stroke="rgba(250,200,88,1)" stroke-width="1" paint-order="fill" stroke-opacity="1" stroke-dasharray="" stroke-linecap="butt" stroke-miterlimit="10" transform="matrix(2,0,0,2,484.5555,88.182)">
</path>
<path d="M 1 0 A 1 1 0 1 1 1 -0.0001" fill="rgba(255,255,255,1)" fill-opacity="1" stroke="rgba(250,200,88,1)" stroke-width="1" paint-order="fill" stroke-opacity="1" stroke-dasharray="" stroke-linecap="butt" stroke-miterlimit="10" transform="matrix(2,0,0,2,524.1111,89.6604)">
</path>
<path d="M 1 0 A 1 1 0 1 1 1 -0.0001" fill="rgba(255,255,255,1)" fill-opacity="1" stroke="rgba(250,200,88,1)" stroke-width="1" paint-order="fill" stroke-opacity="1" stroke-dasharray="" stroke-linecap="butt" stroke-miterlimit="10" transform="matrix(2,0,0,2,563.6667,88.5054)">
</path>
<path d="M 1 0 A 1 1 0 1 1 1 -0.0001" fill="rgba(255,255,255,1)" fill-opacity="1" stroke="rgba(250,200,88,1)" stroke-width="1" paint-order="fill" stroke-opacity="1" stroke-dasharray="" stroke-linecap="butt" stroke-miterlimit="10" transform="matrix(2,0,0,2,603.2222,87.4428)">
</path>
<path d="M 1 0 A 1 1 0 1 1 1 -0.0001" fill="rgba(255,255,255,1)" fill-opacity="1" stroke="rgba(250,200,88,1)" stroke-width="1" paint-order="fill" stroke-opacity="1" stroke-dasharray="" stroke-linecap="butt" stroke-miterlimit="10" transform="matrix(2,0,0,2,642.7778,86.6112)">
</path>
<path d="M 1 0 A 1 1 0 1 1 1 -0.0001" fill="rgba(255,255,255,1)" fill-opacity="1" stroke="rgba(250,200,88,1)" stroke-width="1" paint-order="fill" stroke-opacity="1" stroke-dasharray="" stroke-linecap="butt" stroke-miterlimit="10" transform="matrix(2,0,0,2,682.3333,88.6902)">
</path>
<path d="M 1 0 A 1 1 0 1 1 1 -0.0001" fill="rgba(255,255,255,1)" fill-opacity="1" stroke="rgba(250,200,88,1)" stroke-width="1" paint-order="fill" stroke-opacity="1" stroke-dasharray="" stroke-linecap="butt" stroke-miterlimit="10" transform="matrix(2,0,0,2,721.8889,88.644)">
</path>
<path d="M 1 0 A 1 1 0 1 1 1 -0.0001" fill="rgba(255,255,255,1)" fill-opacity="1" stroke="rgba(238,102,102,1)" stroke-width="1" paint-order="fill" stroke-opacity="1" stroke-dasharray="" stroke-linecap="butt" stroke-miterlimit="10" transform="matrix(2,0,0,2,128.5556,176.7936)">
</path>
<path d="M 1 0 A 1 1 0 1 1 1 -0.0001" fill="#fff" fill-opacity="1" stroke="#ee6666" stroke-width="1" paint-order="fill" stroke-opacity="1" stroke-dasharray="" stroke-linecap="butt" stroke-miterlimit="10" transform="matrix(2,0,0,2,168.1111,179.2884)">
</path>
<path d="M 1 0 A 1 1 0 1 1 1 -0.0001" fill="rgba(255,255,255,1)" fill-opacity="1" stroke="rgba(238,102,102,1)" stroke-width="1" paint-order="fill" stroke-opacity="1" stroke-dasharray="" stroke-linecap="butt" stroke-miterlimit="10" transform="matrix(2,0,0,2,207.6667,180.8592)">
</path>
<path d="M 1 0 A 1 1 0 1 1 1 -0.0001" fill="rgba(255,255,255,1)" fill-opacity="1" stroke="rgba(238,102,102,1)" stroke-width="1" paint-order="fill" stroke-opacity="1" stroke-dasharray="" stroke-linecap="butt" stroke-miterlimit="10" transform="matrix(2,0,0,2,247.2222,176.7936)">
</path>
<path d="M 1 0 A 1 1 0 1 1 1 -0.0001" fill="rgba(255,255,255,1)" fill-opacity="1" stroke="rgba(238,102,102,1)" stroke-width="1" paint-order="fill" stroke-opacity="1" stroke-dasharray="" stroke-linecap="butt" stroke-miterlimit="10" transform="matrix(2,0,0,2,286.7778,177.5328)">
</path>
<path d="M 1 0 A 1 1 0 1 1 1 -0.0001" fill="rgba(255,255,255,1)" fill-opacity="1" stroke="rgba(238,102,102,1)" stroke-width="1" paint-order="fill" stroke-opacity="1" stroke-dasharray="" stroke-linecap="butt" stroke-miterlimit="10" transform="matrix(2,0,0,2,326.3333,179.1498)">
</path>
<path d="M 1 0 A 1 1 0 1 1 1 -0.0001" fill="rgba(255,255,255,1)" fill-opacity="1" stroke="rgba(238,102,102,1)" stroke-width="1" paint-order="fill" stroke-opacity="1" stroke-dasharray="" stroke-linecap="butt" stroke-miterlimit="10" transform="matrix(2,0,0,2,365.8889,178.041)">
</path>
<path d="M 1 0 A 1 1 0 1 1 1 -0.0001" fill="rgba(255,255,255,1)" fill-opacity="1" stroke="rgba(238,102,102,1)" stroke-width="1" paint-order="fill" stroke-opacity="1" stroke-dasharray="" stroke-linecap="butt" stroke-miterlimit="10" transform="matrix(2,0,0,2,405.4445,177.4404)">
</path>
<path d="M 1 0 A 1 1 0 1 1 1 -0.0001" fill="rgba(255,255,255,1)" fill-opacity="1" stroke="rgba(238,102,102,1)" stroke-width="1" paint-order="fill" stroke-opacity="1" stroke-dasharray="" stroke-linecap="butt" stroke-miterlimit="10" transform="matrix(2,0,0,2,445,176.2392)">
</path>
<path d="M 1 0 A 1 1 0 1 1 1 -0.0001" fill="rgba(255,255,255,1)" fill-opacity="1" stroke="rgba(238,102,102,1)" stroke-width="1" paint-order="fill" stroke-opacity="1" stroke-dasharray="" stroke-linecap="butt" stroke-miterlimit="10" transform="matrix(2,0,0,2,484.5555,175.5924)">
</path>
<path d="M 1 0 A 1 1 0 1 1 1 -0.0001" fill="rgba(255,255,255,1)" fill-opacity="1" stroke="rgba(238,102,102,1)" stroke-width="1" paint-order="fill" stroke-opacity="1" stroke-dasharray="" stroke-linecap="butt" stroke-miterlimit="10" transform="matrix(2,0,0,2,524.1111,175.8234)">
</path>
<path d="M 1 0 A 1 1 0 1 1 1 -0.0001" fill="rgba(255,255,255,1)" fill-opacity="1" stroke="rgba(238,102,102,1)" stroke-width="1" paint-order="fill" stroke-opacity="1" stroke-dasharray="" stroke-linecap="butt" stroke-miterlimit="10" transform="matrix(2,0,0,2,563.6667,178.0872)">
</path>
<path d="M 1 0 A 1 1 0 1 1 1 -0.0001" fill="rgba(255,255,255,1)" fill-opacity="1" stroke="rgba(238,102,102,1)" stroke-width="1" paint-order="fill" stroke-opacity="1" stroke-dasharray="" stroke-linecap="butt" stroke-miterlimit="10" transform="matrix(2,0,0,2,603.2222,175.0842)">
</path>
<path d="M 1 0 A 1 1 0 1 1 1 -0.0001" fill="rgba(255,255,255,1)" fill-opacity="1" stroke="rgba(238,102,102,1)" stroke-width="1" paint-order="fill" stroke-opacity="1" stroke-dasharray="" stroke-linecap="butt" stroke-miterlimit="10" transform="matrix(2,0,0,2,642.7778,175.2228)">
</path>
<path d="M 1 0 A 1 1 0 1 1 1 -0.0001" fill="rgba(255,255,255,1)" fill-opacity="1" stroke="rgba(238,102,102,1)" stroke-width="1" paint-order="fill" stroke-opacity="1" stroke-dasharray="" stroke-linecap="butt" stroke-miterlimit="10" transform="matrix(2,0,0,2,682.3333,177.5328)">
</path>
<path d="M 1 0 A 1 1 0 1 1 1 -0.0001" fill="rgba(255,255,255,1)" fill-opacity="1" stroke="rgba(238,102,102,1)" stroke-width="1" paint-order="fill" stroke-opacity="1" stroke-dasharray="" stroke-linecap="butt" stroke-miterlimit="10" transform="matrix(2,0,0,2,721.8889,175.2228)">
</path>
<path d="M -57.6667 -5 L 57.6667 -5 L 57.6667 45 L -57.6667 45 L -57.6667 -5" fill="rgba(0,0,0,0)" fill-opacity="1" stroke="#ccc" stroke-width="0" paint-order="fill" stroke-opacity="1" stroke-dasharray="" stroke-linecap="butt" stroke-miterlimit="10" transform="matrix(1,0,0,1,445,5)">
</path>
<text xml:space="preserve" style="font: bold 18px sans-serif;" fill="#464646" fill-opacity="1" stroke="none" transform="matrix(1,0,0,1,445,5)" dominant-baseline="central" text-anchor="middle" x="0" y="9">测试结果</text>
<text xml:space="preserve" style="font: 12px sans-serif;" fill="#6E7079" fill-opacity="1" stroke="none" transform="matrix(1,0,0,1,445,5)" dominant-baseline="central" text-anchor="middle" x="0" y="34">本次测试系数: 1024</text>
</g>
</svg>